<svg width="20" height="20" viewBox="0 0 20 20" fill="none" xmlns="http://www.w3.org/2000/svg">
<path d="M17.4992 1.66602L15.8326 3.33269M9.49092 9.67436L12.9159 6.24936M12.9159 6.24936L15.4159 8.74936L18.3326 5.83269L15.8326 3.33269M12.9159 6.24936L15.8326 3.33269M9.49092 9.67436C9.9212 10.0989 10.2632 10.6044 10.4974 11.1617C10.7315 11.719 10.8531 12.3171 10.8551 12.9215C10.8571 13.526 10.7395 14.1249 10.5092 14.6838C10.2788 15.2426 9.94013 15.7504 9.51271 16.1778C9.08528 16.6052 8.57752 16.9439 8.01867 17.1743C7.45982 17.4047 6.86092 17.5222 6.25644 17.5202C5.65197 17.5182 5.05387 17.3966 4.49658 17.1625C3.93928 16.9283 3.4338 16.5863 3.00925 16.156C2.17436 15.2916 1.71238 14.1338 1.72283 12.9321C1.73327 11.7303 2.21529 10.5808 3.06508 9.73102C3.91487 8.88123 5.06443 8.39921 6.26616 8.38877C7.4679 8.37832 8.62566 8.8403 9.49008 9.67519L9.49092 9.67436Z" stroke="#286BFF" stroke-width="1.8" stroke-linecap="round" stroke-linejoin="round"/>
</svg>
