<svg width="20" height="20" viewBox="0 0 20 20" fill="none" xmlns="http://www.w3.org/2000/svg">
<path d="M17.5002 1.6665L15.8336 3.33317M9.4919 9.67484L12.9169 6.24984M12.9169 6.24984L15.4169 8.74984L18.3336 5.83317L15.8336 3.33317M12.9169 6.24984L15.8336 3.33317M9.4919 9.67484C9.92218 10.0994 10.2642 10.6049 10.4984 11.1622C10.7325 11.7195 10.8541 12.3176 10.8561 12.922C10.8581 13.5265 10.7405 14.1254 10.5102 14.6843C10.2798 15.2431 9.94111 15.7509 9.51369 16.1783C9.08626 16.6057 8.5785 16.9444 8.01965 17.1748C7.4608 17.4052 6.8619 17.5227 6.25742 17.5207C5.65295 17.5187 5.05485 17.3971 4.49756 17.163C3.94026 16.9288 3.43478 16.5868 3.01023 16.1565C2.17534 15.2921 1.71336 14.1343 1.72381 12.9326C1.73425 11.7308 2.21627 10.5813 3.06606 9.7315C3.91585 8.88171 5.06541 8.39969 6.26714 8.38925C7.46888 8.3788 8.62664 8.84078 9.49106 9.67567L9.4919 9.67484Z" stroke="#D1E4FF" stroke-opacity="0.5" stroke-width="1.8" stroke-linecap="round" stroke-linejoin="round"/>
</svg>
