<svg width="22" height="22" viewBox="0 0 22 22" fill="none" xmlns="http://www.w3.org/2000/svg">
<g clip-path="url(#clip0_407_16323)">
<path d="M21.0832 17.4167C21.0832 17.9029 20.89 18.3692 20.5462 18.713C20.2024 19.0568 19.7361 19.25 19.2498 19.25H2.74984C2.26361 19.25 1.79729 19.0568 1.45347 18.713C1.10966 18.3692 0.916504 17.9029 0.916504 17.4167V7.33333C0.916504 6.8471 1.10966 6.38079 1.45347 6.03697C1.79729 5.69315 2.26361 5.5 2.74984 5.5H6.4165L8.24984 2.75H13.7498L15.5832 5.5H19.2498C19.7361 5.5 20.2024 5.69315 20.5462 6.03697C20.89 6.38079 21.0832 6.8471 21.0832 7.33333V17.4167Z" stroke="white" stroke-width="2" stroke-linecap="round" stroke-linejoin="round"/>
<path d="M11.0002 15.5833C13.0252 15.5833 14.6668 13.9417 14.6668 11.9167C14.6668 9.89162 13.0252 8.25 11.0002 8.25C8.97512 8.25 7.3335 9.89162 7.3335 11.9167C7.3335 13.9417 8.97512 15.5833 11.0002 15.5833Z" stroke="white" stroke-width="2" stroke-linecap="round" stroke-linejoin="round"/>
</g>
<defs>
<clipPath id="clip0_407_16323">
<rect width="22" height="22" fill="white"/>
</clipPath>
</defs>
</svg>
