<svg width="19" height="19" viewBox="0 0 19 19" fill="none" xmlns="http://www.w3.org/2000/svg">
<path d="M12.666 3.16675H14.2493C14.6693 3.16675 15.072 3.33356 15.3689 3.6305C15.6659 3.92743 15.8327 4.33016 15.8327 4.75008V15.8334C15.8327 16.2533 15.6659 16.6561 15.3689 16.953C15.072 17.2499 14.6693 17.4167 14.2493 17.4167H4.74935C4.32942 17.4167 3.9267 17.2499 3.62976 16.953C3.33283 16.6561 3.16602 16.2533 3.16602 15.8334V4.75008C3.16602 4.33016 3.33283 3.92743 3.62976 3.6305C3.9267 3.33356 4.32942 3.16675 4.74935 3.16675H6.33268" stroke="#D4E1FF" stroke-width="2" stroke-linecap="round" stroke-linejoin="round"/>
<path d="M11.8757 1.58325H7.12565C6.68843 1.58325 6.33398 1.93769 6.33398 2.37492V3.95825C6.33398 4.39548 6.68843 4.74992 7.12565 4.74992H11.8757C12.3129 4.74992 12.6673 4.39548 12.6673 3.95825V2.37492C12.6673 1.93769 12.3129 1.58325 11.8757 1.58325Z" stroke="#D4E1FF" stroke-width="2" stroke-linecap="round" stroke-linejoin="round"/>
</svg>
