<svg width="46" height="47" viewBox="0 0 46 47" fill="none" xmlns="http://www.w3.org/2000/svg">
<path d="M0 0.987579H45.8858V25.7581L43.6146 29.3069L45.8858 32.4653V46.8734H0V23.5224L1.41951 21.8899L0 20.3284V0.987579Z" fill="#016FD0"/>
<path d="M8.90747 32.9621V25.7581H16.5352L17.3536 26.825L18.199 25.7581H45.8858V32.4653C45.8858 32.4653 45.1617 32.9549 44.3243 32.9621H28.9936L28.0709 31.8265V32.9621H25.0473V31.0236C25.0473 31.0236 24.6343 31.2942 23.7414 31.2942H22.7122V32.9621H18.1343L17.3171 31.8724L16.4874 32.9621H8.90747Z" fill="white"/>
<path d="M0 20.3284L1.72008 16.3183H4.69479L5.67096 18.5646V16.3183H9.36879L9.9499 17.9419L10.5133 16.3183H27.1127V17.1345C27.1127 17.1345 27.9853 16.3183 29.4194 16.3183L34.8053 16.3372L35.7646 18.5541V16.3183H38.8592L39.7109 17.5918V16.3183H42.8338V23.5224H39.7109L38.8947 22.2448V23.5224H34.3481L33.8909 22.3867H32.6686L32.2188 23.5224H29.1355C27.9015 23.5224 27.1127 22.7228 27.1127 22.7228V23.5224H22.4638L21.5411 22.3867V23.5224H4.2541L3.7972 22.3867H2.57883L2.12515 23.5224H0V20.3284Z" fill="white"/>
<path d="M2.32887 17.2064L0.0088501 22.6006H1.5193L1.94737 21.5204H4.43596L4.86181 22.6006H6.40553L4.08773 17.2064H2.32887ZM3.18723 18.4618L3.94578 20.3493H2.42646L3.18723 18.4618Z" fill="#016FD0"/>
<path d="M6.56528 22.5997V17.2055L8.71171 17.2135L9.96015 20.6913L11.1787 17.2055H13.308V22.5997H11.9594V18.625L10.5299 22.5997H9.34728L7.91381 18.625V22.5997H6.56528Z" fill="#016FD0"/>
<path d="M14.2307 22.5997V17.2055H18.6311V18.4121H15.5934V19.3348H18.5602V20.4704H15.5934V21.4286H18.6311V22.5997H14.2307Z" fill="#016FD0"/>
<path d="M19.4119 17.2064V22.6006H20.7604V20.6842H21.3282L22.9451 22.6006H24.5931L22.8187 20.6133C23.5469 20.5518 24.2981 19.9268 24.2981 18.9564C24.2981 17.8213 23.4072 17.2064 22.4128 17.2064H19.4119ZM20.7604 18.413H22.3019C22.6717 18.413 22.9407 18.7023 22.9407 18.9808C22.9407 19.3392 22.5922 19.5486 22.3219 19.5486H20.7604V18.413Z" fill="#016FD0"/>
<path d="M26.2255 22.5997H24.8486V17.2055H26.2255V22.5997Z" fill="#016FD0"/>
<path d="M29.4904 22.5997H29.1932C27.7551 22.5997 26.882 21.4667 26.882 19.9248C26.882 18.3447 27.7453 17.2055 29.5614 17.2055H31.0518V18.4831H29.5069C28.7697 18.4831 28.2483 19.0584 28.2483 19.9381C28.2483 20.9827 28.8445 21.4215 29.7033 21.4215H30.0582L29.4904 22.5997Z" fill="#016FD0"/>
<path d="M32.4248 17.2064L30.1048 22.6006H31.6152L32.0433 21.5204H34.5319L34.9578 22.6006H36.5015L34.1837 17.2064H32.4248ZM33.2832 18.4618L34.0417 20.3493H32.5224L33.2832 18.4618Z" fill="#016FD0"/>
<path d="M36.6589 22.5997V17.2055H38.3734L40.5626 20.5946V17.2055H41.9111V22.5997H40.2521L38.0075 19.1219V22.5997H36.6589Z" fill="#016FD0"/>
<path d="M9.83014 32.0394V26.6453H14.2306V27.8519H11.1929V28.7746H14.1597V29.9102H11.1929V30.8683H14.2306V32.0394H9.83014Z" fill="#016FD0"/>
<path d="M31.3925 32.0394V26.6453H35.793V27.8519H32.7553V28.7746H35.7078V29.9102H32.7553V30.8683H35.793V32.0394H31.3925Z" fill="#016FD0"/>
<path d="M14.4014 32.0394L16.544 29.3756L14.3504 26.6453H16.0494L17.3558 28.3332L18.6666 26.6453H20.2991L18.1343 29.3424L20.2808 32.0394H18.5821L17.3136 30.3782L16.076 32.0394H14.4014Z" fill="#016FD0"/>
<path d="M20.441 26.6462V32.0403H21.825V30.3369H23.2445C24.4456 30.3369 25.356 29.6997 25.356 28.4605C25.356 27.4339 24.642 26.6462 23.4197 26.6462H20.441ZM21.825 27.8661H23.3199C23.708 27.8661 23.9853 28.1039 23.9853 28.4871C23.9853 28.8471 23.7094 29.1081 23.3155 29.1081H21.825V27.8661Z" fill="#016FD0"/>
<path d="M25.9416 26.6453V32.0394H27.2902V30.1231H27.858L29.4749 32.0394H31.1228L29.3485 30.0521C30.0767 29.9907 30.8279 29.3657 30.8279 28.3953C30.8279 27.2602 29.9369 26.6453 28.9426 26.6453H25.9416ZM27.2902 27.8519H28.8317C29.2014 27.8519 29.4704 28.1411 29.4704 28.4197C29.4704 28.7781 29.1219 28.9875 28.8516 28.9875H27.2902V27.8519Z" fill="#016FD0"/>
<path d="M36.4176 32.0394V30.8683H39.1165C39.5158 30.8683 39.6887 30.6526 39.6887 30.4159C39.6887 30.1891 39.5164 29.9599 39.1165 29.9599H37.8969C36.8368 29.9599 36.2464 29.314 36.2464 28.3443C36.2464 27.4794 36.7871 26.6453 38.3624 26.6453H40.9885L40.4207 27.859H38.1494C37.7153 27.859 37.5816 28.0868 37.5816 28.3044C37.5816 28.528 37.7468 28.7746 38.0785 28.7746H39.356C40.5378 28.7746 41.0506 29.4449 41.0506 30.3227C41.0506 31.2665 40.4791 32.0394 39.2917 32.0394H36.4176Z" fill="#016FD0"/>
<path d="M41.3671 32.0394V30.8683H44.0659C44.4653 30.8683 44.6382 30.6526 44.6382 30.4159C44.6382 30.1891 44.4658 29.9599 44.0659 29.9599H42.8464C41.7863 29.9599 41.1959 29.314 41.1959 28.3443C41.1959 27.4794 41.7365 26.6453 43.3118 26.6453H45.9379L45.3701 27.859H43.0989C42.6647 27.859 42.5311 28.0868 42.5311 28.3044C42.5311 28.528 42.6962 28.7746 43.0279 28.7746H44.3055C45.4872 28.7746 46 29.4449 46 30.3227C46 31.2665 45.4286 32.0394 44.2411 32.0394H41.3671Z" fill="#016FD0"/>
</svg>
