<svg width="20" height="22" viewBox="0 0 20 22" fill="none" xmlns="http://www.w3.org/2000/svg">
<path d="M16.4283 0.169356C15.7836 -0.188515 13.9353 0.0327611 11.7155 0.719903C7.83051 3.37546 4.55167 7.28777 4.32286 13.5703C4.2812 13.7205 3.89801 13.5498 3.82222 13.5034C2.77312 11.4926 2.35749 9.37523 3.23346 6.32079C3.39674 6.04896 2.86293 5.71432 2.76695 5.8099C2.57468 6.00249 1.77313 6.85635 1.24077 7.77975C-1.39804 12.3573 0.327629 18.2227 4.94439 20.7895C9.56018 23.3604 15.3889 21.7021 17.959 17.0849C20.9323 11.7558 18.1715 1.14291 16.4284 0.169517L16.4283 0.169356Z" fill="#82B541"/>
</svg>
