<svg width="22" height="22" viewBox="0 0 22 22" fill="none" xmlns="http://www.w3.org/2000/svg">
<path d="M22 11.0672C22 4.95496 17.0751 -1.90735e-06 11 -1.90735e-06C4.92486 -1.90735e-06 0 4.95496 0 11.0672C0 16.5912 4.02254 21.1697 9.28125 22V14.2663H6.48828V11.0672H9.28125V8.62897C9.28125 5.85525 10.9235 4.32313 13.4361 4.32313C14.6396 4.32313 15.8984 4.53929 15.8984 4.53929V7.26286H14.5114C13.1449 7.26286 12.7188 8.11597 12.7188 8.99119V11.0672H15.7695L15.2818 14.2663H12.7188V22C17.9775 21.1697 22 16.5912 22 11.0672Z" fill="#286BFF"/>
</svg>
