<svg width="21" height="22" viewBox="0 0 21 22" fill="none" xmlns="http://www.w3.org/2000/svg">
<path fill-rule="evenodd" clip-rule="evenodd" d="M20.58 11.2385C20.58 10.494 20.5132 9.77809 20.3891 9.09082H10.5V13.1524H16.1509C15.9075 14.4649 15.1677 15.577 14.0557 16.3215V18.956H17.4491C19.4345 17.1281 20.58 14.4363 20.58 11.2385Z" fill="#4285F4"/>
<path fill-rule="evenodd" clip-rule="evenodd" d="M10.4994 21.5001C13.3344 21.5001 15.7112 20.5599 17.4485 18.9563L14.0551 16.3217C13.1148 16.9517 11.9121 17.324 10.4994 17.324C7.76462 17.324 5.44985 15.4769 4.62417 12.9951H1.11621V15.7156C2.84394 19.1472 6.39485 21.5001 10.4994 21.5001Z" fill="#34A853"/>
<path fill-rule="evenodd" clip-rule="evenodd" d="M4.62477 12.9956C4.41477 12.3656 4.29545 11.6927 4.29545 11.0006C4.29545 10.3086 4.41477 9.63561 4.62477 9.00561V6.28516H1.11682C0.405682 7.70266 0 9.30629 0 11.0006C0 12.6949 0.405682 14.2986 1.11682 15.7161L4.62477 12.9956Z" fill="#FBBC05"/>
<path fill-rule="evenodd" clip-rule="evenodd" d="M10.4994 4.67614C12.041 4.67614 13.4251 5.20591 14.5133 6.24636L17.5248 3.23477C15.7064 1.54045 13.3296 0.5 10.4994 0.5C6.39485 0.5 2.84394 2.85295 1.11621 6.28455L4.62417 9.005C5.44985 6.52318 7.76462 4.67614 10.4994 4.67614Z" fill="#EA4335"/>
</svg>
