<svg width="27" height="24" viewBox="0 0 27 24" fill="none" xmlns="http://www.w3.org/2000/svg">
<path d="M23.4449 3.68635C22.8703 3.11148 22.1881 2.65545 21.4372 2.34432C20.6863 2.03319 19.8814 1.87305 19.0686 1.87305C18.2558 1.87305 17.451 2.03319 16.7001 2.34432C15.9492 2.65545 15.267 3.11148 14.6924 3.68635L13.4999 4.87885L12.3074 3.68635C11.1467 2.5257 9.57255 1.87365 7.93114 1.87365C6.28973 1.87365 4.71554 2.5257 3.55489 3.68635C2.39424 4.847 1.74219 6.42119 1.74219 8.0626C1.74219 9.70401 2.39424 11.2782 3.55489 12.4389L4.74739 13.6314L13.4999 22.3839L22.2524 13.6314L23.4449 12.4389C24.0198 11.8643 24.4758 11.182 24.7869 10.4311C25.0981 9.68023 25.2582 8.8754 25.2582 8.0626C25.2582 7.2498 25.0981 6.44497 24.7869 5.69408C24.4758 4.94318 24.0198 4.26095 23.4449 3.68635Z" stroke="#D1E4FF" stroke-opacity="0.7" stroke-width="2" stroke-linecap="round" stroke-linejoin="round"/>
</svg>
