<svg width="22" height="22" viewBox="0 0 22 22" fill="none" xmlns="http://www.w3.org/2000/svg">
<path d="M13.1667 2H5.83333C5.3471 2 4.88079 2.19315 4.53697 2.53697C4.19315 2.88079 4 3.3471 4 3.83333V18.5C4 18.9862 4.19315 19.4525 4.53697 19.7964C4.88079 20.1402 5.3471 20.3333 5.83333 20.3333H16.8333C17.3196 20.3333 17.7859 20.1402 18.1297 19.7964C18.4735 19.4525 18.6667 18.9862 18.6667 18.5V7.5L13.1667 2Z" stroke="#7787A4" stroke-width="1.8" stroke-linecap="round" stroke-linejoin="round"/>
<path d="M12.8335 1.8335V7.3335H18.3335" stroke="#7787A4" stroke-width="1.8" stroke-linecap="round" stroke-linejoin="round"/>
<path d="M14.6668 11.9165H7.3335" stroke="#7787A4" stroke-width="1.8" stroke-linecap="round" stroke-linejoin="round"/>
<path d="M14.6668 15.5835H7.3335" stroke="#7787A4" stroke-width="1.8" stroke-linecap="round" stroke-linejoin="round"/>
<path d="M9.16683 8.25H8.25016H7.3335" stroke="#7787A4" stroke-width="1.8" stroke-linecap="round" stroke-linejoin="round"/>
</svg>
