<svg width="58" height="58" viewBox="0 0 58 58" fill="none" xmlns="http://www.w3.org/2000/svg">
<rect x="1" y="1" width="56" height="56" rx="28" fill="#286BFF" stroke="#213256" stroke-width="2"/>
<path d="M22.8411 27.296V29.328H19.8331V32.384H17.6891V29.328H14.6811V27.296H17.6891V24.224H19.8331V27.296H22.8411ZM26.5302 34V24.704H24.8342V22.64H28.8342V34H26.5302ZM31.2152 28.176C31.2152 24.304 32.6499 22.368 35.5192 22.368C38.3992 22.368 39.8392 24.304 39.8392 28.176C39.8392 32.0373 38.3992 33.968 35.5192 33.968C32.6499 33.968 31.2152 32.0373 31.2152 28.176ZM36.4792 24.656C36.2125 24.5173 35.8979 24.448 35.5352 24.448C35.1725 24.448 34.8579 24.5173 34.5912 24.656C34.3245 24.7947 34.1165 24.9707 33.9672 25.184C33.8285 25.3973 33.7165 25.68 33.6312 26.032C33.5459 26.3733 33.4872 26.704 33.4552 27.024C33.4339 27.344 33.4232 27.7227 33.4232 28.16C33.4232 28.5973 33.4339 28.976 33.4552 29.296C33.4872 29.616 33.5459 29.952 33.6312 30.304C33.7165 30.6453 33.8285 30.928 33.9672 31.152C34.1165 31.3653 34.3245 31.5413 34.5912 31.68C34.8579 31.8187 35.1725 31.888 35.5352 31.888C35.8979 31.888 36.2125 31.8187 36.4792 31.68C36.7459 31.5413 36.9485 31.3653 37.0872 31.152C37.2365 30.928 37.3539 30.6453 37.4392 30.304C37.5245 29.952 37.5779 29.616 37.5992 29.296C37.6312 28.976 37.6472 28.5973 37.6472 28.16C37.6472 27.7227 37.6312 27.344 37.5992 27.024C37.5779 26.704 37.5245 26.3733 37.4392 26.032C37.3539 25.68 37.2365 25.3973 37.0872 25.184C36.9485 24.9707 36.7459 24.7947 36.4792 24.656Z" fill="white"/>
</svg>
