<svg width="233" height="148" viewBox="0 0 233 148" fill="none" xmlns="http://www.w3.org/2000/svg">
<path d="M108.667 54.5611C108.667 74.8731 104.533 88.4303 95.58 103.101C87.1128 116.996 75.1879 128.441 60.9771 136.312C46.7664 144.182 30.7591 148.207 14.5283 147.992H12.7093C30.2767 140.615 44.239 126.59 51.5697 108.956C40.952 108.413 30.7262 104.757 22.1591 98.4407C13.5921 92.1243 7.06028 83.425 3.37284 73.4205C-0.314609 63.4161 -0.995627 52.5461 1.41414 42.1571C3.82391 31.7681 9.21857 22.3166 16.9298 14.9736C24.6411 7.6306 34.3301 2.7187 44.7965 0.846392C55.263 -1.02591 66.0469 0.223651 75.8125 4.44029C85.578 8.65694 93.896 15.6554 99.736 24.5686C105.576 33.4818 108.681 43.9182 108.667 54.5848V54.5611ZM178.737 0.0479321C164.869 0.479919 151.691 6.21852 141.905 16.0871C132.119 25.9556 126.467 39.2063 126.108 53.1223C125.748 67.0382 130.709 80.5649 139.972 90.9288C149.235 101.293 162.099 107.709 175.926 108.861C168.579 126.492 154.611 140.515 137.042 147.897H138.837C155.072 148.117 171.084 144.093 185.3 136.223C199.515 128.352 211.443 116.905 219.913 103.007C228.842 88.3355 233 74.7783 233 54.4662C232.956 40.0495 227.222 26.2372 217.053 16.0519C206.883 5.86661 193.106 0.137771 178.737 0.119033V0.0479321Z" fill="url(#paint0_linear_407_7377)" fill-opacity="0.1"/>
<path d="M95.1532 102.841L95.153 102.841C86.7309 116.662 74.8696 128.046 60.7349 135.874C46.7587 143.615 31.0355 147.616 15.078 147.497C31.743 139.851 44.9555 126.169 52.0314 109.148L52.3037 108.493L51.5952 108.456C41.0756 107.919 30.9441 104.297 22.4559 98.0382C13.9676 91.78 7.49569 83.1605 3.84198 73.2476C0.188276 63.3347 -0.486526 52.564 1.90121 42.27C4.28894 31.976 9.63422 22.6112 17.2746 15.3357C24.915 8.06019 34.5148 3.1936 44.8846 1.33858C55.2544 -0.516439 65.9388 0.721572 75.6143 4.89933C85.2897 9.07709 93.5313 16.0111 99.3177 24.8426C105.1 33.6677 108.177 44 108.167 54.5611C108.167 74.7836 104.057 88.2503 95.1532 102.841ZM139.409 147.403C156.077 139.752 169.296 126.073 176.388 109.053L176.652 108.42L175.968 108.363C162.268 107.221 149.523 100.864 140.345 90.5956C131.166 80.3268 126.251 66.924 126.608 53.1352C126.964 39.3464 132.564 26.217 142.26 16.4391C151.835 6.78365 164.686 1.11864 178.237 0.566228V0.618382L178.737 0.619033C192.973 0.637598 206.623 6.31349 216.699 16.4052C226.775 26.497 232.457 40.1827 232.5 54.4678C232.5 74.6889 228.366 88.1556 219.486 102.746C211.062 116.571 199.196 127.957 185.057 135.785C171.083 143.523 155.363 147.522 139.409 147.403Z" stroke="#9EC5FF" stroke-opacity="0.1"/>
<defs>
<linearGradient id="paint0_linear_407_7377" x1="0" y1="0" x2="253.835" y2="60.312" gradientUnits="userSpaceOnUse">
<stop stop-color="#9EC5FF"/>
<stop offset="0.96875" stop-color="#7CB1FF" stop-opacity="0.6"/>
</linearGradient>
</defs>
</svg>
