<svg width="20" height="20" viewBox="0 0 20 20" fill="none" xmlns="http://www.w3.org/2000/svg">
<g clip-path="url(#clip0_407_17246)">
<path d="M19.1667 3.3335V8.3335H14.1667" stroke="white" stroke-width="1.8" stroke-linecap="round" stroke-linejoin="round"/>
<path d="M0.833252 16.6665V11.6665H5.83325" stroke="white" stroke-width="1.8" stroke-linecap="round" stroke-linejoin="round"/>
<path d="M2.92492 7.49998C3.34756 6.30564 4.06586 5.23782 5.01281 4.39616C5.95975 3.55451 7.10447 2.96645 8.34016 2.68686C9.57584 2.40727 10.8622 2.44527 12.0792 2.79729C13.2963 3.14932 14.4043 3.80391 15.2999 4.69998L19.1666 8.33331M0.833252 11.6666L4.69992 15.3C5.59554 16.1961 6.70356 16.8506 7.92059 17.2027C9.13762 17.5547 10.424 17.5927 11.6597 17.3131C12.8954 17.0335 14.0401 16.4455 14.987 15.6038C15.934 14.7621 16.6523 13.6943 17.0749 12.5" stroke="white" stroke-width="1.8" stroke-linecap="round" stroke-linejoin="round"/>
</g>
<defs>
<clipPath id="clip0_407_17246">
<rect width="20" height="20" fill="white"/>
</clipPath>
</defs>
</svg>
