<svg width="19" height="19" viewBox="0 0 19 19" fill="none" xmlns="http://www.w3.org/2000/svg">
<path d="M14.25 6.3335C15.5617 6.3335 16.625 5.27017 16.625 3.9585C16.625 2.64682 15.5617 1.5835 14.25 1.5835C12.9383 1.5835 11.875 2.64682 11.875 3.9585C11.875 5.27017 12.9383 6.3335 14.25 6.3335Z" stroke="#D4E1FF" stroke-width="1.5" stroke-linecap="round" stroke-linejoin="round"/>
<path d="M4.75 11.875C6.06168 11.875 7.125 10.8117 7.125 9.5C7.125 8.18832 6.06168 7.125 4.75 7.125C3.43832 7.125 2.375 8.18832 2.375 9.5C2.375 10.8117 3.43832 11.875 4.75 11.875Z" stroke="#D4E1FF" stroke-width="1.5" stroke-linecap="round" stroke-linejoin="round"/>
<path d="M14.25 17.4165C15.5617 17.4165 16.625 16.3532 16.625 15.0415C16.625 13.7298 15.5617 12.6665 14.25 12.6665C12.9383 12.6665 11.875 13.7298 11.875 15.0415C11.875 16.3532 12.9383 17.4165 14.25 17.4165Z" stroke="#D4E1FF" stroke-width="1.5" stroke-linecap="round" stroke-linejoin="round"/>
<path d="M6.80029 10.6953L12.2074 13.8461" stroke="#D4E1FF" stroke-width="1.5" stroke-linecap="round" stroke-linejoin="round"/>
<path d="M12.1995 5.15381L6.80029 8.30464" stroke="#D4E1FF" stroke-width="1.5" stroke-linecap="round" stroke-linejoin="round"/>
</svg>
