<svg width="20" height="20" viewBox="0 0 20 20" fill="none" xmlns="http://www.w3.org/2000/svg">
<g clip-path="url(#clip0_1206_2)">
<mask id="mask0_1206_2" style="mask-type:alpha" maskUnits="userSpaceOnUse" x="0" y="0" width="20" height="20">
<path d="M20 0H0V20H20V0Z" fill="white"/>
</mask>
<g mask="url(#mask0_1206_2)">
<path d="M14.1653 17.5V15.8333C14.1653 14.9493 13.8141 14.1014 13.189 13.4763C12.5639 12.8512 11.716 12.5 10.832 12.5H4.16537C3.28131 12.5 2.43347 12.8512 1.80835 13.4763C1.18323 14.1014 0.832031 14.9493 0.832031 15.8333V17.5" stroke="#286BFF" stroke-width="1.8" stroke-linecap="round" stroke-linejoin="round"/>
<path d="M7.4974 9.16667C9.33835 9.16667 10.8308 7.67428 10.8308 5.83333C10.8308 3.99238 9.33835 2.5 7.4974 2.5C5.65645 2.5 4.16406 3.99238 4.16406 5.83333C4.16406 7.67428 5.65645 9.16667 7.4974 9.16667Z" stroke="#286BFF" stroke-width="1.8" stroke-linecap="round" stroke-linejoin="round"/>
<path d="M19.1641 17.5001V15.8334C19.1636 15.0948 18.9177 14.3774 18.4652 13.7937C18.0128 13.2099 17.3792 12.793 16.6641 12.6084" stroke="#286BFF" stroke-width="1.8" stroke-linecap="round" stroke-linejoin="round"/>
<path d="M13.332 2.6084C14.049 2.79198 14.6845 3.20898 15.1384 3.79366C15.5922 4.37833 15.8385 5.09742 15.8385 5.83757C15.8385 6.57771 15.5922 7.2968 15.1384 7.88147C14.6845 8.46615 14.049 8.88315 13.332 9.06673" stroke="#286BFF" stroke-width="1.8" stroke-linecap="round" stroke-linejoin="round"/>
</g>
</g>
<defs>
<clipPath id="clip0_1206_2">
<rect width="20" height="20" fill="white"/>
</clipPath>
</defs>
</svg>
